<?xml version="1.0" encoding="utf-8"?>
<!-- Generator: Adobe Illustrator 21.0.2, SVG Export Plug-In . SVG Version: 6.00 Build 0)  -->
<svg version="1.1" id="Layer_1" xmlns="http://www.w3.org/2000/svg" xmlns:xlink="http://www.w3.org/1999/xlink" x="0px" y="0px"
	 viewBox="0 0 1000 1000" style="enable-background:new 0 0 1000 1000;" xml:space="preserve">
<style type="text/css">
	.st0{enable-background:new    ;}
	.st1{fill:none;stroke:#231F20;stroke-width:8;stroke-miterlimit:10;}
	.st2{fill:#231F20;stroke:#231F20;stroke-width:8;stroke-miterlimit:10;}
</style>
<g class="st0">
	<path d="M165.2,367.1c13,0,36.4,1,53.6,14.7c7.4,5.6,21,20,21,48.3c0,11.6-2.4,31.9-23.1,45.9c32.6,8.1,44.5,36.4,44.5,58.8
		s-11.2,40.6-23.8,50.4c-18.6,14.7-39.9,15.4-56,15.4h-58.1V367.1H165.2z M149.1,469.7h19.6c13.6,0,45.9-2.8,45.9-38.9
		c0-38.5-37.8-39.2-45.2-39.2h-20.3V469.7z M149.1,576.1h29.8c15.1,0,29.8-1.1,41-9.8c9.1-6.7,15.4-18.2,15.4-32.2
		c0-18.6-10.9-29.4-20-34.3c-8.8-4.9-21-7-39.6-7h-26.6V576.1z"/>
</g>
<g class="st0">
	<path d="M414.6,365.2l61.6,175l73.2-186.9l69.3,186.9l68.3-175h28.7l-98,245.7L549,424l-73.5,186.9l-89.6-245.7H414.6z"/>
</g>
<g class="st0">
	<path d="M628.4,366.6l61.6,175l73.2-186.9l69.3,186.9l68.3-175h28.7l-98,245.7l-68.6-186.9l-73.5,186.9l-89.6-245.7H628.4z"/>
</g>
<rect x="289.1" y="347.1" class="st1" width="69" height="251.6"/>
<line class="st1" x1="293.1" y1="472.9" x2="323.6" y2="472.9"/>
<line class="st1" x1="292.8" y1="535.8" x2="323.3" y2="535.8"/>
<line class="st1" x1="292.8" y1="411.8" x2="323.3" y2="411.8"/>
<line class="st1" x1="292.8" y1="442.4" x2="308.3" y2="442.4"/>
<line class="st1" x1="292.8" y1="381.3" x2="308.3" y2="381.3"/>
<line class="st1" x1="292.8" y1="504.3" x2="308.3" y2="504.3"/>
<line class="st1" x1="292.8" y1="567.2" x2="308.3" y2="567.2"/>
<rect x="198" y="326.3" class="st2" width="251" height="20"/>
<path class="st1" d="M198,326.3"/>
<path class="st2" d="M198,326.3c0,0,64.1-0.6,82.7-27.5h42.8l0,0h42.8c18.6,27,82.7,27.5,82.7,27.5"/>
</svg>
